REM DIRINDEX 1\2\4,1\2\5,1\2\6,1\3\7,1\3\8
REM DIRNAME folder01,folder02,folder03,folder04,folder05,folder06,folder07,folder08
TITLE ""
FILE "016_Lesson 13_Output_Stage.mp3" MP3
  TRACK 01 AUDIO
    TITLE "0:"
    INDEX 01 00:00:00
  TRACK 02 AUDIO
    TITLE "8:cjc128_2995"
    INDEX 01 00:00:13
  TRACK 03 AUDIO
    TITLE "0:"
    INDEX 01 00:03:15
  TRACK 04 AUDIO
    TITLE "8:cjc128_2996"
    INDEX 01 00:04:07
  TRACK 05 AUDIO
    TITLE "0:"
    INDEX 01 00:06:08
  TRACK 06 AUDIO
    TITLE "7:cjc128_2997"
    INDEX 01 00:07:05
  TRACK 07 AUDIO
    TITLE "0:"
    INDEX 01 00:09:36
  TRACK 08 AUDIO
    TITLE "8:cjc128_2998"
    INDEX 01 00:12:48
  TRACK 09 AUDIO
    TITLE "0:"
    INDEX 01 00:14:13
  TRACK 10 AUDIO
    TITLE "7:cjc128_2999"
    INDEX 01 00:15:01
  TRACK 11 AUDIO
    TITLE "0:"
    INDEX 01 00:18:07
  TRACK 12 AUDIO
    TITLE "8:cjc128_3000"
    INDEX 01 00:21:74
  TRACK 13 AUDIO
    TITLE "0:"
    INDEX 01 00:23:53
  TRACK 14 AUDIO
    TITLE "7:cjc128_3001"
    INDEX 01 00:24:39
  TRACK 15 AUDIO
    TITLE "0:"
    INDEX 01 00:26:50
  TRACK 16 AUDIO
    TITLE "8:cjc128_3002"
    INDEX 01 00:29:34
  TRACK 17 AUDIO
    TITLE "0:"
    INDEX 01 00:31:22
  TRACK 18 AUDIO
    TITLE "7:cjc128_3003"
    INDEX 01 00:32:11
  TRACK 19 AUDIO
    TITLE "0:"
    INDEX 01 00:35:15
  TRACK 20 AUDIO
    TITLE "8:cjc128_3004"
    INDEX 01 00:39:11
  TRACK 21 AUDIO
    TITLE "0:"
    INDEX 01 00:41:00
  TRACK 22 AUDIO
    TITLE "7:cjc128_3005"
    INDEX 01 00:41:51
  TRACK 23 AUDIO
    TITLE "0:"
    INDEX 01 00:43:58
  TRACK 24 AUDIO
    TITLE "8:cjc128_3006"
    INDEX 01 00:46:25
  TRACK 25 AUDIO
    TITLE "0:"
    INDEX 01 00:48:08
  TRACK 26 AUDIO
    TITLE "7:cjc128_3007"
    INDEX 01 00:49:00
  TRACK 27 AUDIO
    TITLE "0:"
    INDEX 01 00:50:58
  TRACK 28 AUDIO
    TITLE "8:cjc128_3008"
    INDEX 01 00:53:17
  TRACK 29 AUDIO
    TITLE "0:"
    INDEX 01 00:55:08
  TRACK 30 AUDIO
    TITLE "7:cjc128_3009"
    INDEX 01 00:55:61
  TRACK 31 AUDIO
    TITLE "0:"
    INDEX 01 00:57:56
  TRACK 32 AUDIO
    TITLE "8:cjc128_3010"
    INDEX 01 01:00:35
  TRACK 33 AUDIO
    TITLE "0:"
    INDEX 01 01:02:26
  TRACK 34 AUDIO
    TITLE "7:cjc128_3011"
    INDEX 01 01:03:08
  TRACK 35 AUDIO
    TITLE "0:"
    INDEX 01 01:05:34
  TRACK 36 AUDIO
    TITLE "8:cjc128_3012"
    INDEX 01 01:08:35
  TRACK 37 AUDIO
    TITLE "0:"
    INDEX 01 01:10:18
  TRACK 38 AUDIO
    TITLE "7:cjc128_3013"
    INDEX 01 01:11:05
  TRACK 39 AUDIO
    TITLE "0:"
    INDEX 01 01:13:49
  TRACK 40 AUDIO
    TITLE "8:cjc128_3014"
    INDEX 01 01:17:06
  TRACK 41 AUDIO
    TITLE "0:"
    INDEX 01 01:18:64
  TRACK 42 AUDIO
    TITLE "7:cjc128_3015"
    INDEX 01 01:19:50
  TRACK 43 AUDIO
    TITLE "0:"
    INDEX 01 01:22:37
  TRACK 44 AUDIO
    TITLE "8:cjc128_3016"
    INDEX 01 01:25:60
  TRACK 45 AUDIO
    TITLE "0:"
    INDEX 01 01:27:51
  TRACK 46 AUDIO
    TITLE "7:cjc128_3017"
    INDEX 01 01:28:35
  TRACK 47 AUDIO
    TITLE "0:"
    INDEX 01 01:31:51
  TRACK 48 AUDIO
    TITLE "8:cjc128_3018"
    INDEX 01 01:35:59
  TRACK 49 AUDIO
    TITLE "0:"
    INDEX 01 01:37:19
  TRACK 50 AUDIO
    TITLE "7:cjc128_3019"
    INDEX 01 01:38:08
  TRACK 51 AUDIO
    TITLE "0:"
    INDEX 01 01:41:12
  TRACK 52 AUDIO
    TITLE "8:cjc128_3020"
    INDEX 01 01:44:70
  TRACK 53 AUDIO
    TITLE "0:"
    INDEX 01 01:46:49
  TRACK 54 AUDIO
    TITLE "7:cjc128_3021"
    INDEX 01 01:47:35
  TRACK 55 AUDIO
    TITLE "0:"
    INDEX 01 01:49:57
  TRACK 56 AUDIO
    TITLE "8:cjc128_3022"
    INDEX 01 01:52:55
  TRACK 57 AUDIO
    TITLE "0:"
    INDEX 01 01:54:41
  TRACK 58 AUDIO
    TITLE "7:cjc128_3023"
    INDEX 01 01:55:30
  TRACK 59 AUDIO
    TITLE "0:"
    INDEX 01 01:57:39
  TRACK 60 AUDIO
    TITLE "8:cjc128_3024"
    INDEX 01 02:00:37
  TRACK 61 AUDIO
    TITLE "0:"
    INDEX 01 02:02:20
  TRACK 62 AUDIO
    TITLE "7:cjc128_3025"
    INDEX 01 02:03:06
  TRACK 63 AUDIO
    TITLE "0:"
    INDEX 01 02:06:71
  TRACK 64 AUDIO
    TITLE "8:cjc128_3026"
    INDEX 01 02:11:35
  TRACK 65 AUDIO
    TITLE "0:"
    INDEX 01 02:13:14
  TRACK 66 AUDIO
    TITLE "7:cjc128_3027"
    INDEX 01 02:14:02
  TRACK 67 AUDIO
    TITLE "0:"
    INDEX 01 02:16:36
  TRACK 68 AUDIO
    TITLE "8:cjc128_3028"
    INDEX 01 02:19:29
  TRACK 69 AUDIO
    TITLE "0:"
    INDEX 01 02:21:14
  TRACK 70 AUDIO
    TITLE "7:cjc128_3029"
    INDEX 01 02:22:02
  TRACK 71 AUDIO
    TITLE "0:"
    INDEX 01 02:25:33
  TRACK 72 AUDIO
    TITLE "8:cjc128_3030"
    INDEX 01 02:29:53
  TRACK 73 AUDIO
    TITLE "0:"
    INDEX 01 02:31:32
  TRACK 74 AUDIO
    TITLE "7:cjc128_3031"
    INDEX 01 02:32:14
  TRACK 75 AUDIO
    TITLE "0:"
    INDEX 01 02:34:24
  TRACK 76 AUDIO
    TITLE "8:cjc128_3032"
    INDEX 01 02:36:74
  TRACK 77 AUDIO
    TITLE "0:"
    INDEX 01 02:38:61
  TRACK 78 AUDIO
    TITLE "7:cjc128_3033"
    INDEX 01 02:39:47
  TRACK 79 AUDIO
    TITLE "0:"
    INDEX 01 02:41:60
  TRACK 80 AUDIO
    TITLE "8:cjc128_3034"
    INDEX 01 02:44:54
  TRACK 81 AUDIO
    TITLE "0:"
    INDEX 01 02:46:33
  TRACK 82 AUDIO
    TITLE "7:cjc128_3035"
    INDEX 01 02:47:17
  TRACK 83 AUDIO
    TITLE "0:"
    INDEX 01 02:50:19
  TRACK 84 AUDIO
    TITLE "8:cjc128_3036"
    INDEX 01 02:54:06
  TRACK 85 AUDIO
    TITLE "0:"
    INDEX 01 02:55:66
  TRACK 86 AUDIO
    TITLE "7:cjc128_3037"
    INDEX 01 02:56:48
  TRACK 87 AUDIO
    TITLE "0:"
    INDEX 01 02:59:11
